<svg width="35" height="30" viewBox="0 0 35 30" fill="none" xmlns="http://www.w3.org/2000/svg">
<path d="M29.0423 3.75H5.94369C3.55176 3.75 1.6127 5.42894 1.6127 7.5V22.5C1.6127 24.5711 3.55176 26.25 5.94369 26.25H29.0423C31.4342 26.25 33.3733 24.5711 33.3733 22.5V7.5C33.3733 5.42894 31.4342 3.75 29.0423 3.75ZM30.486 22.5C30.486 23.1904 29.8396 23.75 29.0423 23.75H5.94369C5.14638 23.75 4.50003 23.1904 4.50003 22.5V7.5C4.50003 6.80965 5.14638 6.25 5.94369 6.25H29.0423C29.8396 6.25 30.486 6.80965 30.486 7.5V22.5ZM13.162 15V20C13.162 20.6904 12.5156 21.25 11.7183 21.25C10.921 21.25 10.2747 20.6904 10.2747 20V15C10.2747 14.3097 10.921 13.75 11.7183 13.75C12.5156 13.75 13.162 14.3097 13.162 15ZM18.9366 12.5V20C18.9366 20.6904 18.2903 21.25 17.493 21.25C16.6957 21.25 16.0493 20.6904 16.0493 20V12.5C16.0493 11.8097 16.6957 11.25 17.493 11.25C18.2903 11.25 18.9366 11.8097 18.9366 12.5ZM24.7113 10V20C24.7113 20.6904 24.0649 21.25 23.2676 21.25C22.4703 21.25 21.824 20.6904 21.824 20V10C21.824 9.30965 22.4703 8.75 23.2676 8.75C24.0649 8.75 24.7113 9.30965 24.7113 10Z" fill="white"/>
</svg>
